<svg xmlns="http://www.w3.org/2000/svg" width="56" height="44" viewBox="0 0 56 44"><g fill="none" stroke="#000" stroke-width="1.7" stroke-linecap="round"><path d="M0 22 L2 19.3 L4 16.8 L6 14.5 L8 12.6 L10 11.2 L12 10.3 L14 10 L16 10.3 L18 11.2 L20 12.6 L22 14.5 L24 16.8 L26 19.3 L28 22 L30 24.7 L32 27.2 L34 29.5 L36 31.4 L38 32.8 L40 33.7 L42 34 L44 33.7 L46 32.8 L48 31.4 L50 29.5 L52 27.2 L54 24.7 L56 22"/><path d="M0 22 L2 24.7 L4 27.2 L6 29.5 L8 31.4 L10 32.8 L12 33.7 L14 34 L16 33.7 L18 32.8 L20 31.4 L22 29.5 L24 27.2 L26 24.7 L28 22 L30 19.3 L32 16.8 L34 14.5 L36 12.6 L38 11.2 L40 10.3 L42 10 L44 10.3 L46 11.2 L48 12.6 L50 14.5 L52 16.8 L54 19.3 L56 22"/></g><g fill="#000"><circle cx="14" cy="22" r="2.1"/><circle cx="42" cy="22" r="2.1"/></g></svg>